<?xml version="1.0" standalone="no"?>
<!DOCTYPE svg PUBLIC "-//W3C//DTD SVG 20010904//EN"
 "http://www.w3.org/TR/2001/REC-SVG-20010904/DTD/svg10.dtd">
<svg version="1.0" xmlns="http://www.w3.org/2000/svg"
 width="180.000000pt" height="180.000000pt" viewBox="0 0 180.000000 180.000000"
 preserveAspectRatio="xMidYMid meet">
<metadata>
Created by potrace 1.11, written by Peter Selinger 2001-2013
</metadata>
<g transform="translate(0.000000,180.000000) scale(0.100000,-0.100000)"
fill="#000000" stroke="none">
<path d="M600 1575 l0 -225 -275 0 -275 0 0 -450 0 -450 275 0 275 0 0 -225
c0 -124 3 -225 8 -225 4 0 66 47 137 103 250 199 534 423 768 607 130 102 236
187 236 190 0 3 -23 23 -52 45 -29 22 -126 98 -217 170 -91 72 -302 239 -470
372 -168 132 -325 257 -350 277 -25 20 -48 36 -52 36 -5 0 -8 -101 -8 -225z"/>
</g>
</svg>
